<svg xmlns="http://www.w3.org/2000/svg" enable-background="new 0 0 51 51" viewBox="0 0 51 51" id="business-monitoring"><path fill="#E6A45B" d="M48.11712,42.28863c1.77495,1.57858,1.84513,4.31468,0.16837,5.99144
				c-1.68379,1.68379-4.41989,1.61361-5.99842-0.16138L29.46229,33.79263c-0.37177-0.42795-0.35777-1.07338,0.04214-1.47328
				l2.8133-2.8133c0.3999-0.3999,1.04533-0.4139,1.47328-0.04214L48.11712,42.28863z"></path><path fill="#010101" d="M48.28761,48.27992c-1.69009,1.67904-4.41846,1.61276-5.99805-0.16565L29.46494,33.78739
				c-0.37553-0.41976-0.36448-1.07144,0.04423-1.46915l0.87262-0.88368l12.46008,13.91818
				c1.57959,1.77841,4.30795,1.84468,5.99805,0.16565c0.24298-0.24298,0.4418-0.50808,0.60752-0.78423
				C49.64626,45.98237,49.25967,47.30785,48.28761,48.27992z" opacity=".1"></path><g><circle cx="16.72" cy="16.72" r="15.223" fill="#DEDEDD"></circle><path fill="#DEEDF9" d="M16.72225,1.49528c-8.40961,0-15.22968,6.82007-15.22968,15.22961
				c0,4.44507,1.91296,8.45581,4.96259,11.23737c1.24762,1.13672,2.67999,2.07928,4.26025,2.75391
				c1.88947,0.80682,3.88708,1.22906,6.00684,1.22906c0.27722,0,0.55444-0.00916,0.83167-0.01843
				c0.87793-0.05542,1.74664-0.1756,2.57831-0.36969c0.83173-0.18481,1.63574-0.44354,2.41205-0.76703
				c1.6449-0.68384,3.14197-1.6449,4.43579-2.82782c3.04962-2.78156,4.96252-6.7923,4.96252-11.23737
				C31.94258,8.31535,25.12251,1.49528,16.72225,1.49528z"></path><g><path fill="#F5C560" d="M13.29409,21.32721v10.23004c-0.90002-0.20001-1.76001-0.48999-2.58002-0.84003
						c-1.58002-0.67999-3.01001-1.62-4.26001-2.75v-6.64001c0-0.63995,0.52002-1.15997,1.16003-1.15997h4.51996
						C12.77407,20.16724,13.29409,20.68726,13.29409,21.32721z"></path><path fill="#010101" d="M13.29409,21.32721v10.23004c-0.90002-0.20001-1.76001-0.48999-2.58002-0.84003V20.16724h1.41998
						C12.77407,20.16724,13.29409,20.68726,13.29409,21.32721z" opacity=".1"></path><path fill="#B88CBF" d="M20.13406,16.98724v14.57001c-0.82996,0.19-1.69995,0.31-2.57996,0.37
						c-0.28003,0.01001-0.55005,0.02002-0.83002,0.02002c-1.17999,0-2.33002-0.13-3.42999-0.39001V16.98724
						c0-0.64001,0.51996-1.16003,1.14996-1.16003h4.53003C19.6141,15.82721,20.13406,16.34723,20.13406,16.98724z"></path><path fill="#010101" d="M20.13406,16.98724v14.57001c-0.82996,0.19-1.69995,0.31-2.57996,0.37V15.82721h1.41998
						C19.6141,15.82721,20.13406,16.34723,20.13406,16.98724z" opacity=".1"></path><path fill="#F05B76" d="M26.98409,11.36725v16.59998c-1.29999,1.17999-2.79004,2.14001-4.44,2.82001
						c-0.78003,0.33002-1.58002,0.59003-2.41003,0.77002v-20.19c0-0.64001,0.52002-1.16003,1.15002-1.16003h4.53998
						C26.46407,10.20721,26.98409,10.72723,26.98409,11.36725z"></path><path fill="#010101" d="M26.98409,11.36725v16.59998c-1.29999,1.17999-2.79004,2.14001-4.44,2.82001
						c0.65997-0.40997,1.27997-0.88,1.85999-1.39001v-19.19h1.41998C26.46407,10.20721,26.98409,10.72723,26.98409,11.36725z" opacity=".1"></path><path fill="#2A3D66" d="M48.78889,41.54014L34.44887,28.71013c-0.79999-0.69995-2.08997-0.65997-2.83996,0.09003l-0.24005,0.25
					l-2.07996-2.08002c2.27997-2.79999,3.64996-6.37,3.64996-10.25c0-8.95001-7.26996-16.21997-16.21997-16.21997
					c-8.94,0-16.22003,7.26996-16.22003,16.21997c0,7.60936,5.27254,13.70737,11.47003,15.51001
					c4.97407,1.58304,10.43819,0.61081,14.98999-2.92999h0.01001l2.07001,2.07001l-0.24005,0.23999
					c-0.76996,0.77002-0.81,2.01001-0.07996,2.84997l12.82001,14.32001c1.93937,2.17941,5.3311,2.32888,7.44995,0.21002
					C51.12156,46.85745,50.94744,43.47472,48.78889,41.54014z M16.71889,2.50017c7.83997,0,14.21997,6.38,14.21997,14.21997
					c0,3.25-1.08997,6.25-2.95001,8.65002v-14c0-1.19-0.96997-2.16003-2.15997-2.16003H21.2889
					c-1.19,0-2.15002,0.97003-2.15002,2.16003v3.46997c-0.04999-0.01001-0.10999-0.01001-0.15997-0.01001h-4.53003
					c-1.19,0-2.15002,0.97003-2.15002,2.16003v2.19c-0.04999-0.01001-0.10999-0.01001-0.15997-0.01001H7.61885
					c-1.19995,0-2.16998,0.96997-2.16998,2.15997v4.04004c-1.85999-2.40002-2.95001-5.40002-2.95001-8.65002
					C2.49886,8.88017,8.87886,2.50017,16.71889,2.50017z M7.44887,27.49016v-6.16003c0-0.08997,0.08002-0.15997,0.16998-0.15997
					h4.52002c0.08002,0,0.15997,0.07001,0.15997,0.15997v8.90002c-0.3741-0.09349-1.21654-0.43927-1.70996-0.67999
					c-0.02002,0-0.04004-0.01001-0.04999-0.02002c-0.59297-0.27477-1.3064-0.70506-1.71002-0.98999
					c-0.03003,0-0.06-0.02002-0.09003-0.06C7.86953,27.9006,7.61428,27.63488,7.44887,27.49016z M14.29884,30.73015
					c0-7.68141,0-5.99057,0-13.73999c0-0.09003,0.07001-0.16003,0.15002-0.16003h4.53003c0.07996,0,0.15997,0.07001,0.15997,0.16003
					v13.73999C17.4269,31.07296,14.98957,30.92767,14.29884,30.73015z M21.63887,30.07017
					c-0.01001,0.00995-0.02002,0.00995-0.03998,0.00995c-0.11049,0.04739-0.31101,0.11274-0.46002,0.15002
					c0-2.38355,0-13.40614,0-18.85999c0-0.09003,0.07001-0.16003,0.15002-0.16003h4.53998
					c0.08002,0,0.15997,0.07001,0.15997,0.16003v13.59998v2.52002C24.23459,29.01094,22.74891,29.60269,21.63887,30.07017z
					 M47.57887,47.57017c-1.22998,1.22998-3.40002,1.17999-4.54999-0.12c-13.02378-14.6061-12.92164-14.31841-12.82001-14.42004
					c1.06034-1.02783,2.18242-2.11506,2.90997-2.82001l14.33002,12.83002C48.81571,44.23873,48.83874,46.33052,47.57887,47.57017z"></path></g></g></svg>