<svg xmlns="http://www.w3.org/2000/svg" viewBox="0 0 64 64" id="billboard"><path fill="#2c3e50" d="M11.5 44.5h3v15h-3zm19 0h3v15h-3zm19 0h3v15h-3z"></path><path fill="#e74c3c" d="M6.5 10.5h51v31h-51z"></path><path fill="#ecf0f1" d="M43.5 13.5h11v25h-45v-25h11"></path><path fill="#3498db" d="M33.5 22.5h14v4h-14z"></path><circle cx="24" cy="23.5" r="3" fill="#f0c9ae"></circle><path fill="#2c3e50" d="M28.5 38.5v-8a2 2 0 0 0-2-2h-5.586l-6.707-6.707a.999.999 0 1 0-1.414 1.414l6.707 8.707V38.5"></path><path fill="#f8b545" d="M22.5 15.5v-5h-2v5h-2v2h6v-2zm21 0v-5h-2v5h-2v2h6v-2z"></path><path fill="#2c3e50" d="M4.5 41.5h55v3h-55zm0-34h55v3h-55z"></path><path fill="#212e3a" d="M59.5 45h-55a.5.5 0 0 1-.5-.5v-3a.5.5 0 0 1 .5-.5h55a.5.5 0 0 1 .5.5v3a.5.5 0 0 1-.5.5zM5 44h54v-2H5v2zm54.5-33h-55a.5.5 0 0 1-.5-.5v-3a.5.5 0 0 1 .5-.5h55a.5.5 0 0 1 .5.5v3a.5.5 0 0 1-.5.5zM5 10h54V8H5v2zm42.5 17h-14a.5.5 0 0 1-.5-.5v-4a.5.5 0 0 1 .5-.5h14a.5.5 0 0 1 .5.5v4a.5.5 0 0 1-.5.5zM34 26h13v-3H34v3zm15.5 4h-18a.5.5 0 0 1 0-1h18a.5.5 0 0 1 0 1zm0 3h-18a.5.5 0 0 1 0-1h18a.5.5 0 0 1 0 1zm0 3h-18a.5.5 0 0 1 0-1h18a.5.5 0 0 1 0 1z"></path><path fill="#212e3a" d="M57.5 42h-51a.5.5 0 0 1-.5-.5v-31a.5.5 0 0 1 .5-.5h51a.5.5 0 0 1 .5.5v31a.5.5 0 0 1-.5.5zM7 41h50V11H7v30z"></path><path fill="#212e3a" d="M41.5 14h-19a.5.5 0 0 1 0-1h19a.5.5 0 0 1 0 1z"></path><path fill="#212e3a" d="M54.5 39h-45a.5.5 0 0 1-.5-.5v-25a.5.5 0 0 1 .5-.5h11a.5.5 0 0 1 0 1H10v24h44V14H43.5a.5.5 0 0 1 0-1h11a.5.5 0 0 1 .5.5v25a.5.5 0 0 1-.5.5zm-40 21h-3a.5.5 0 0 1-.5-.5v-15a.5.5 0 0 1 .5-.5h3a.5.5 0 0 1 .5.5v15a.5.5 0 0 1-.5.5zM12 59h2V45h-2v14z"></path><path fill="#212e3a" d="M24.5 18h-6a.5.5 0 0 1-.5-.5v-2a.5.5 0 0 1 .5-.5H20v-4.5a.5.5 0 0 1 .5-.5h2a.5.5 0 0 1 .5.5V15h1.5a.5.5 0 0 1 .5.5v2a.5.5 0 0 1-.5.5zM19 17h5v-1h-1.5a.5.5 0 0 1-.5-.5V11h-1v4.5a.5.5 0 0 1-.5.5H19v1zm26.5 1h-6a.5.5 0 0 1-.5-.5v-2a.5.5 0 0 1 .5-.5H41v-4.5a.5.5 0 0 1 .5-.5h2a.5.5 0 0 1 .5.5V15h1.5a.5.5 0 0 1 .5.5v2a.5.5 0 0 1-.5.5zM40 17h5v-1h-1.5a.5.5 0 0 1-.5-.5V11h-1v4.5a.5.5 0 0 1-.5.5H40v1zm-6.5 43h-3a.5.5 0 0 1-.5-.5v-15a.5.5 0 0 1 .5-.5h3a.5.5 0 0 1 .5.5v15a.5.5 0 0 1-.5.5zM31 59h2V45h-2v14zm21.5 1h-3a.5.5 0 0 1-.5-.5v-15a.5.5 0 0 1 .5-.5h3a.5.5 0 0 1 .5.5v15a.5.5 0 0 1-.5.5zM50 59h2V45h-2v14zM24 27c-1.93 0-3.5-1.57-3.5-3.5S22.07 20 24 20s3.5 1.57 3.5 3.5S25.93 27 24 27zm0-6c-1.379 0-2.5 1.121-2.5 2.5S22.621 26 24 26s2.5-1.121 2.5-2.5S25.379 21 24 21z"></path><path fill="#212e3a" d="M28.5 39a.5.5 0 0 1-.5-.5v-8c0-.827-.673-1.5-1.5-1.5h-5.586a.504.504 0 0 1-.354-.146l-6.707-6.707a.5.5 0 0 0-.707.707l6.75 8.756a.49.49 0 0 1 .104.304V38.5a.5.5 0 0 1-1 0v-6.416l-6.604-8.572c-.542-.536-.542-1.487.043-2.072a1.503 1.503 0 0 1 2.121 0L21.121 28H26.5c1.379 0 2.5 1.121 2.5 2.5v8a.5.5 0 0 1-.5.5z"></path></svg>