<svg xmlns="http://www.w3.org/2000/svg" width="64" height="64" id="business"><g stroke="#0e7bff" transform="translate(0 -988.362)"><path fill="#dae7fc" fill-rule="evenodd" stroke="none" d="M6.314 1042.313v-10l11.998-11.937 2.931 3 7.969-8 1.954 2 12.273-12.065v37.002z"></path><path fill="#dae7fc" d="M50.5 1040.862c-.554 0-1 .446-1 1v3h9v-3c0-.554-.446-1-1-1h-7z" color="#000" overflow="visible" style="isolation:auto;mix-blend-mode:normal" stroke="none"></path><path style="isolation:auto;mix-blend-mode:normal" fill="#6ca6fd" stroke="none" d="M53 1034.862h2v4h-2z" color="#000" overflow="visible"></path><circle style="isolation:auto;mix-blend-mode:normal" cx="50" cy="1014.862" r="1" fill="#6ca6fd" stroke="none" color="#000" overflow="visible"></circle><path fill="#dae7fc" style="isolation:auto;mix-blend-mode:normal" stroke="none" d="M48.5 1021.862v8.111a4.878 4.878 0 0 0 4.889 4.89h1.222a4.878 4.878 0 0 0 4.889-4.89v-8.111z" color="#000" overflow="visible"></path><path fill="none" d="M3.5 995.362v50m46-2.5H1m4.84-10.5 13-12 3 3 8-8 2 2 12.005-12.346"></path><path fill="none" d="M40.5 1004.862H44v3.5m-36 25v7m3-10v10m3-13v13m3-16v16m3-16v16m3-15v15m3-18v18m3-21v21m3-20v20m3-23v23m3-26v26m3-29v29"></path><path fill="none" stroke-linecap="round" stroke-linejoin="round" color="#000" overflow="visible" style="isolation:auto;mix-blend-mode:normal" d="M53 1034.862h2v4h-2z"></path><path fill="#b2cdf8" d="M49.929 1033.434a4.873 4.873 0 0 0 3.46 1.428h1.222a4.878 4.878 0 0 0 4.889-4.889v-8.111l-9.571 11.572z" color="#000" overflow="visible" style="isolation:auto;mix-blend-mode:normal" stroke="none"></path><path fill="none" stroke-linecap="round" stroke-linejoin="round" d="M49.551 1030.834a3.492 3.492 0 0 1-3.051-3.472v-.729m0-.179v-2.592h2.967" color="#000" overflow="visible" style="isolation:auto;mix-blend-mode:normal" transform="matrix(-1 0 0 1 109 0)"></path><path fill="none" stroke-linecap="round" stroke-linejoin="round" d="M48.407 1030.813a3.489 3.489 0 0 1-2.907-3.45v-.73m0-.179v-2.592h2.868m.132-2v8.111a4.878 4.878 0 0 0 4.889 4.89h1.222a4.878 4.878 0 0 0 4.889-4.89v-8.111z" color="#000" overflow="visible" style="isolation:auto;mix-blend-mode:normal"></path><path fill="#6ca6fd" style="isolation:auto;mix-blend-mode:normal" stroke="none" d="m54 1036.362-.89-.301-.752.561.012-.939-.767-.542.897-.279.279-.897.542.767.94-.012-.563.753z" color="#000" overflow="visible" transform="rotate(8.722 5949.092 1184.808) scale(1.85876)"></path><path fill="none" stroke-linecap="round" stroke-linejoin="round" stroke-width=".538" d="m54 1036.362-.89-.301-.752.561.012-.939-.767-.542.897-.279.279-.897.542.767.94-.012-.563.753z" color="#000" overflow="visible" transform="rotate(8.722 5949.092 1184.808) scale(1.85876)" style="isolation:auto;mix-blend-mode:normal"></path><path fill="#b2cdf8" d="M52 1038.862c-.277 0-.5.223-.5.5v1.5h5v-1.5c0-.277-.223-.5-.5-.5z" color="#000" overflow="visible" style="isolation:auto;mix-blend-mode:normal" stroke="none"></path><path fill="#b2cdf8" style="isolation:auto;mix-blend-mode:normal" stroke="none" d="m940.318 770.01-4.162 3.947v.053h7.344v-3c0-.554-.446-1-1-1z" color="#000" overflow="visible" transform="translate(-885 270.851)"></path><path fill="none" stroke-linecap="round" stroke-linejoin="round" style="isolation:auto;mix-blend-mode:normal" d="M52 1038.862c-.277 0-.5.223-.5.5v1.5h5v-1.5c0-.277-.223-.5-.5-.5zm-1.5 2c-.554 0-1 .446-1 1v3h9v-3c0-.554-.446-1-1-1h-7z" color="#000" overflow="visible"></path><path fill="#0e7bff" stroke="none" color="#000" overflow="visible" style="isolation:auto;mix-blend-mode:normal" d="M6 998.362h1v1H6zM8 998.362h3v1H8zM12 998.362h11v1H12z"></path><path fill="none" stroke-linecap="round" stroke-linejoin="round" d="m45.081 1019.857 1.414-1.414m-1.414 0 1.414 1.414M61.075 1017.489l.919-.53m-2.375.14-.53-.92m1.598 2.758.53.919m-1.987-1.309-.918.53m-10.186 17.29.868-.502m-2.238.13-.494-.854m1.505 2.595.493.854m-1.876-1.224-.854.493M60.58 1040.857l1.415-1.414m-1.414 0 1.414 1.414"></path><circle cx="50" cy="1014.862" r="1" fill="none" stroke-linecap="round" stroke-linejoin="round" color="#000" overflow="visible" style="isolation:auto;mix-blend-mode:normal"></circle><circle style="isolation:auto;mix-blend-mode:normal" cx="59" cy="1035.862" r=".5" fill="#0e7bff" stroke="none" color="#000" overflow="visible"></circle><circle cx="44.5" cy="1040.862" r=".5" fill="#0e7bff" color="#000" overflow="visible" style="isolation:auto;mix-blend-mode:normal" stroke="none"></circle><path style="isolation:auto;mix-blend-mode:normal" fill="#0e7bff" stroke="none" d="M6 1000.362h1v1H6zM8 1000.362h3v1H8zM12 1000.362h11v1H12z" color="#000" overflow="visible"></path><path fill="none" d="M52 1042.862h4"></path></g></svg>