<svg xmlns="http://www.w3.org/2000/svg" viewBox="0 0 91.08 109.475" x="0px" y="0px"><title>deep-learning</title><g><g><g><g><path d="M90.85,58.51A4.61,4.61,0,0,0,89,58.9L84,50l5-8.9a4.61,4.61,0,0,0,1.85.39,4.69,4.69,0,1,0,0-9.38,4.62,4.62,0,0,0-3.12,1.24L64.59,12.79A4.18,4.18,0,1,0,57,9.9H42.19a4.18,4.18,0,1,0-7.54,2.93L12.23,33.31a4.68,4.68,0,1,0-3.08,8.18,4.62,4.62,0,0,0,1.45-.26l1.87,3.36-1,1.36a4.59,4.59,0,0,0-2.33-.64,4.69,4.69,0,0,0,0,9.38A4.59,4.59,0,0,0,11.48,54l1.21,1.65-1.74,3.18a4.6,4.6,0,0,0-1.8-.37,4.69,4.69,0,1,0,3.08,8.18L34.65,87.17a4.18,4.18,0,1,0,7.54,2.93H57a4.18,4.18,0,1,0,7.58-2.89L87.73,66.65a4.62,4.62,0,0,0,3.12,1.24,4.69,4.69,0,1,0,0-9.38Zm-3.47-18.6L81.8,46.1l-2.13-3.79,7.14-3.17A4.56,4.56,0,0,0,87.38,39.91ZM86.19,63.73,74.86,66.24l4.32-7.68,7.23,3.21a4.65,4.65,0,0,0-.25,1.42A4.6,4.6,0,0,0,86.19,63.73ZM73.55,66.53l-8.46,1.88a4.16,4.16,0,0,0-.79-1.36L74,56.26l4.26,1.89Zm-32.68,20-.3-.25,5.31-9.1,3,2.53ZM13.57,61.73l2.64-1.2,3.3,4.53-5.71-1.3a4.46,4.46,0,0,0,0-.55A4.65,4.65,0,0,0,13.57,61.73Zm3.57-1.63,3.15-1.44,4.18,7.52L21,65.39ZM13.68,38c0-.09,0-.17.06-.26a4.64,4.64,0,0,0,.1-.89,4.43,4.43,0,0,0,0-.52v0l5.71-1.3-3.3,4.53L13.6,38.28C13.63,38.17,13.65,38.06,13.68,38ZM21,34.61l3.7-.84-4.2,7.67L17.14,39.9ZM45.77,17.67l-2.23,1.14-3-5.08.3-.25Zm-6.05-3.43,2.93,5-1.29.66-1.65-5.67Zm3.43,5.89,2,3.36-2.18,1.86-1.3-4.46Zm2.47,4.24,3.11,5.33H44.2l-1-3.29ZM58.33,13.48l.3.25-5.31,9.1-3-2.53ZM52.81,23.71l-3.21,5.5-3.21-5.5L49.6,21Zm4.21,7a4.16,4.16,0,0,0,.66,1.82l-3.27,2.8,1.35-4.62ZM55.75,69.3,54.4,64.67l3.27,2.8A4.16,4.16,0,0,0,57,69.3ZM43.24,73.59l1-3.29H45l-1.4,3.61Zm0,1.31-1.49,3.82,1.19-4.08Zm.22-44.2,1.35,4.63-3.27-2.8a4.16,4.16,0,0,0,.66-1.83Zm14.88,2.58.3.25-3.26,5.58-1.28-2.2Zm-16.14,36a4.16,4.16,0,0,0-.66-1.83l3.27-2.8L43.45,69.3Zm-1.32-36,4.23,3.63-1.28,2.2-3.25-5.58Zm10.47,9-1.74,6-1.74-6,1.74-1.49Zm-1-2.15,2.13-1.83-.85,2.93ZM48.83,59.9,46.7,61.72l.85-2.92Zm-1-2.15.16-.54.39,1Zm1.74.77-1.12-2.89,1.12-3.85,1.12,3.85ZM48,53.78l-.1.33,0-.1Zm-.6-1-.9-2.32h2.25Zm3.84,1,.14.24,0,.1Zm-.75-3.27h2.25l-.9,2.32Zm-2.92-9.3-.85-2.92,2.13,1.83Zm-2-3.14,1.12,3.85-.84.72L44.4,40.1ZM47,43l1,3.27-1.59-2.72Zm1.7,6.54H46.09l-1.67-4.3,1.2-1ZM45,49.5H42.19a4.16,4.16,0,0,0-.66-1.83l2.08-1.78Zm-2.83,1h3.22l1.33,3.42-1.12,1.91-4.09-3.5A4.16,4.16,0,0,0,42.19,50.5Zm5,4.61.22.57L47,57l-.63-.54Zm-.48,3L45.6,61.94l-1.19-2,1.47-2.53Zm1.69,3.48L47.2,64.69l-.81-1.39Zm1.19-.29,1.76,4.51-1.75,3-1.76-3Zm1.19.29,2,1.73L52,64.69Zm-.42-1.68,1.28-1.1.85,2.92Zm.42-1.68.39-1,.16.54Zm1-2.54.22-.57.81,1.38-.64.54Zm.69-1.76,1.33-3.42H57a4.16,4.16,0,0,0,.66,1.82l-4.09,3.51ZM57,49.5H54.18l1.4-3.61,2.08,1.78A4.16,4.16,0,0,0,57,49.5Zm-3.9,0H50.47l3.11-5.33,1.2,1Zm-1.89-3.27,1-3.26.63.54Zm1.26-4.32,1.12-3.85,1.19,2-1.48,2.53ZM49.6,39.44l-3.21-2.75,3.21-5.5,3.21,5.5Zm-3.7-3.9L44.49,30.7h4.24ZM43.25,40.1l-.49.83-1.94-5Zm.58,1,1.28,2.2L44,44.21l-.81-2.09Zm-.59,3.81-2.36,2-.3-.25,2-3.44Zm-2.36,8.18,4.24,3.63-1.28,2.2-3.26-5.58Zm4.24,10-4.24,3.63-.3-.25,3.26-5.58ZM42.19,70.3h1l-.75,2.58-.87-.75A4.16,4.16,0,0,0,42.19,70.3Zm2.3-1,1.41-4.84.83,1.43L45.41,69.3ZM47.38,67l1.35,2.31H46.48Zm4.44,0,.9,2.31H50.47Zm.64-1.1.83-1.43,1.41,4.84h-.92Zm5.87.84-4.24-3.63,1.28-2.2,3.26,5.58ZM53.6,61.94l-1.12-3.85.84-.72L54.8,59.9Zm.49-5.23,4.24-3.63.3.25-3.26,5.58Zm4.24-9.79L56,44.9l.65-1.67,2,3.44Zm-3.16-2.71-1.07-.92,1.28-2.2.6,1ZM56,40.1l2.43-4.17-1.95,5ZM53.3,35.55,50.47,30.7h4.24ZM43.16,29.7h-1a4.16,4.16,0,0,0-.66-1.83l.87-.75ZM34.95,33,25.53,43.73,21.72,42l13.19-9Zm.74.67a4.06,4.06,0,0,0,3.4.59l3,7.79-2.4,4.12a4.16,4.16,0,0,0-5.22,1.67l-8-3.66ZM34.08,48.74a4.14,4.14,0,0,0-.17.76H21.81l4-4.55Zm-.17,1.76a4.14,4.14,0,0,0,.17.76L25.79,55l-4-4.55Zm.57,1.68a4.16,4.16,0,0,0,5.23,1.67l3.54,6.06L39.71,66a4.17,4.17,0,0,0-4,.39L26.48,55.83ZM34.94,67l0,0L21.72,58l3.81-1.74Zm-.59.86a4.12,4.12,0,0,0-.23.52l-8.35-1.91-4-7.25Zm-.45,1.49a4.12,4.12,0,0,0,0,.43,4.17,4.17,0,0,0,7,3.08l1.23,1.05L38.73,85.48a3.9,3.9,0,0,0-2.26.25l-10-18.07ZM44,75.59l1.07.92-4.29,7.35Zm.38-1,1.67-4.3h2.64l-3.11,5.33Zm8.69-4.3,1.67,4.3-1.2,1L50.47,70.3Zm2.06,5.29,3.22,8.27-4.29-7.35Zm.8-.69.3-.25,1.19,4.08Zm-.38-1-1.4-3.61H55l1,3.29ZM56,70.3h1a4.16,4.16,0,0,0,.66,1.83l-.88.75Zm7.51-3.92A4.16,4.16,0,0,0,59.49,66L56,59.9l3.53-6.06a4.16,4.16,0,0,0,5.25-1.7L73,55.84Zm1.58-15.15a3.79,3.79,0,0,0,0-2.45l8.61-3.83L78.3,50l-4.55,5.05Zm-.4-3.37a4.16,4.16,0,0,0-5.25-1.7L57.08,42l3-7.79a4,4,0,0,0,3.44-.62L73,44.16ZM57,29.7H56l.75-2.57.87.75A4.16,4.16,0,0,0,57,29.7Zm-2,0H50.47l3.11-5.33,2.38,2Zm-.91-6.21,5.4-9.25h0L56.27,25.36ZM49.6,19.64l-2-1.76,10.1-5.14Zm-.77.66-3,2.53L44,19.67l2.55-1.3ZM38.05,14.59a4.17,4.17,0,0,0,.68-.07l1.71,5.86-10.1,5.14L36.5,14.28A4.17,4.17,0,0,0,38.05,14.59ZM29.49,27.08l11.23-5.72,1.37,4.71-1.23,1.05a4.17,4.17,0,0,0-7,3.08,4.12,4.12,0,0,0,0,.43l-7.27,1.66Zm4.63,4.53a4.13,4.13,0,0,0,.23.52l-12.2,8.36,3.84-7ZM20.93,42.73l3.92,1.79-4.14,4.73-2.06-2.35Zm-3,3.36-.83-.94,2.15-1.47ZM19.6,49.5H17.22l.92-1.67Zm0,1-1.66,1.89L16.9,50.5Zm1.1.26,4.14,4.72-4.08,1.86-.1-.07-2.2-4ZM18.82,56l-1.69-1.16.64-.73Zm.88,1.82-3.16,1.44-1.5-2,1.42-1.62Zm5.42,9.53,8.56,15.4L21.9,66.62Zm21.27,8.93,3.21-5.5,3.21,5.5L49.6,79Zm6.93.88,5.31,9.1-.3.25-8-6.82Zm7.83,8.24a4.17,4.17,0,0,0-.68.07L57.1,73.93l1.23-1.05a4.17,4.17,0,0,0,7-3.08,4.1,4.1,0,0,0,0-.41l7.59-1.69-10.14,18A4.17,4.17,0,0,0,61.15,85.41ZM74.71,55.48,79,50.75l2.13,2.37-2.34,4.17ZM79.64,50l2-2.19L82.85,50l-1.23,2.19ZM79,49.25l-4.26-4.73,4-1.8,2.34,4.17Zm7.28-11.58c0,.09,0,.17.06.26s0,.21.07.31l-7.2,3.2-4.32-7.68,11.33,2.52a4.52,4.52,0,0,0,0,.53A4.68,4.68,0,0,0,86.25,37.67Zm-8,4.17L74,43.74,64.29,32.95a4.16,4.16,0,0,0,.79-1.36l8.46,1.88Zm-13-11.24a4.1,4.1,0,0,0,0-.41,4.17,4.17,0,0,0-7-3.08L57.1,26.07l3.37-11.55a3.91,3.91,0,0,0,2.28-.25l10.14,18ZM57.23,11.83l-10.5,5.35-5.2-4.45a4.16,4.16,0,0,0,.66-1.83H57A4.15,4.15,0,0,0,57.23,11.83ZM28.75,26.35,26,27.74l7.91-10.84ZM27.9,27.9l-2.57,4.69-3.44.79,2.81-3.85Zm-7.49,5.82-6.83,1.56,0-.08,9.18-4.67Zm-7.25,5.46,2.45,1.12L14.36,42l-1.79-2A4.64,4.64,0,0,0,13.16,39.18Zm3.38,1.54,3.17,1.45-3.24,2.22L15,42.77ZM15.63,45l-1.31.9-.66-1.19.78-1.07Zm.66.76L17.43,47l-1.22,2.24L14.8,46.74ZM15.2,49.5H13.8a4.55,4.55,0,0,0-.53-1.71L14,47.3Zm-1.39,1h1.73l-1.3,2.37-1-.66A4.56,4.56,0,0,0,13.8,50.5Zm2.41.83,1,1.86-1,1.09-1.23-.84ZM15.63,55,14.44,56.4l-.57-.78.71-1.3Zm0,4.66-2.45,1.12a4.61,4.61,0,0,0-.58-.78l1.79-2Zm-2,5,6.84,1.56,14.3,19.59L12.92,66A4.59,4.59,0,0,0,13.58,64.72Zm28,22.55,8.07-6.91,8.07,6.92A4.16,4.16,0,0,0,57,89.1H42.19A4.16,4.16,0,0,0,41.53,87.27Zm22.09-1L74.2,67.41,86.42,64.7A4.53,4.53,0,0,0,87,65.92L63.92,86.47Zm23.2-25.37-7.14-3.17L81.8,53.9l5.57,6.19A4.56,4.56,0,0,0,86.81,60.86Zm1.31-1.48,0,0L82.32,53l1.1-2ZM82.32,47l5.78-6.43,0,0L83.42,49ZM94.54,36.8a3.69,3.69,0,0,1-3.69,3.69A3.65,3.65,0,0,1,89,40a3.15,3.15,0,0,1-.65-.46,3.6,3.6,0,0,1-.91-1.24,3.69,3.69,0,0,1-.32-1.5,3.07,3.07,0,0,1,.1-.81,3.54,3.54,0,0,1,.85-1.64,3.64,3.64,0,0,1,2.74-1.24A3.69,3.69,0,0,1,94.54,36.8ZM87,34.11a4.57,4.57,0,0,0-.41.71l-.07.17c0,.1-.09.21-.12.32L74.2,32.59,63.62,13.77l.3-.24L87,34.08Zm-52.32-20L24,28.74,13.11,34.31,13,34.09l0-.06ZM5.46,36.8a3.68,3.68,0,0,1,6.41-2.48,3.5,3.5,0,0,1,.59.88h0a2.57,2.57,0,0,1,.16.36,3.4,3.4,0,0,1,.12.41h0a3.63,3.63,0,0,1,.1.82,3.66,3.66,0,0,1-1.27,2.78,3.41,3.41,0,0,1-.93.59,3.65,3.65,0,0,1-1.49.32A3.69,3.69,0,0,1,5.46,36.8Zm6.06,4,.31-.2,1.93,2.2-.64.87Zm2,5.59L12.7,47a4.31,4.31,0,0,0-.41-.42l.72-1ZM5.46,50a3.69,3.69,0,0,1,3.69-3.69,3.62,3.62,0,0,1,2.17.72,3.37,3.37,0,0,1,.87.9,3.64,3.64,0,0,1,0,4.16,3.35,3.35,0,0,1-.87.89,3.61,3.61,0,0,1-2.16.71A3.69,3.69,0,0,1,5.46,50Zm6.83,3.46A4.32,4.32,0,0,0,12.7,53l1.05.72-.53,1Zm1.47,3.71-1.92,2.19h0l1.51-2.76Zm-8.3,6a3.69,3.69,0,0,1,3.69-3.69,3.65,3.65,0,0,1,1.78.46,3,3,0,0,1,.64.45,3.66,3.66,0,0,1,1.27,2.77,3.74,3.74,0,0,1-1,2.48A3.68,3.68,0,0,1,5.46,63.2Zm85.39,3.69a3.64,3.64,0,0,1-2.75-1.24A3.58,3.58,0,0,1,87.25,64a3,3,0,0,1-.09-.78,3.68,3.68,0,0,1,.32-1.5,3.62,3.62,0,0,1,.91-1.24A3.28,3.28,0,0,1,89,60h0a3.63,3.63,0,0,1,1.8-.48,3.69,3.69,0,1,1,0,7.38Z" transform="translate(-4.46 -6.21)"/></g></g></g></g><text x="0" y="102.58" fill="#000000" font-size="5px" font-weight="bold" font-family="'Helvetica Neue', Helvetica, Arial-Unicode, Arial, Sans-serif">Created by Product Pencil</text><text x="0" y="107.58" fill="#000000" font-size="5px" font-weight="bold" font-family="'Helvetica Neue', Helvetica, Arial-Unicode, Arial, Sans-serif">from the Noun Project</text></svg>