<svg xmlns="http://www.w3.org/2000/svg" width="64" height="64" id="mobile"><g transform="translate(-387.998 -1893.362)"><path fill="#b2cdf8" fill-rule="evenodd" d="M449.5 1944.954v3.455a3.435 3.435 0 0 1-3.43 3.454h-52.142c-1.9 0-3.459-1.54-3.43-3.454l.051-3.455"></path><path fill="#0e7bff" fill-rule="evenodd" d="m57.859 1945.756-.051 3.456c-.033 2.188 1.759 3.96 3.93 3.96h52.142c2.17 0 3.93-1.772 3.93-3.953v-3.455h-1v3.455c0 1.648-1.3 2.953-2.93 2.953H61.738c-1.63 0-2.954-1.307-2.93-2.945l.05-3.455-1-.016z" color="#000" font-family="sans-serif" font-weight="400" overflow="visible" style="line-height:normal;text-indent:0;text-align:start;text-decoration-line:none;text-decoration-style:solid;text-decoration-color:#000;text-transform:none;block-progression:tb;white-space:normal;isolation:auto;mix-blend-mode:normal;solid-color:#000;solid-opacity:1" transform="translate(332.19 -.81)"></path><path fill="#fff" d="M447.468 1926.99a2.748 2.748 0 0 0-2.744-2.764h-49.397a2.748 2.748 0 0 0-2.744 2.764l-2.031 17.964c0 2.073 1.136 4.146 3.79 4.146h50.956c2.656 0 4.202-2.073 4.202-4.146z"></path><path fill="#b2cdf8" fill-rule="evenodd" d="m440.353 1924.417 1.372 21.919h-43.817l1.372-21.919"></path><path fill="#6ca6fd" fill-rule="evenodd" d="m440.353 1924.417 1.372 21.919h-43.817"></path><path fill="#6ca6fd" fill-rule="evenodd" d="m398.779 1924.518-1.263 20.566 1.306 1.752h42.902l-.154-1.972h-40.972c-1.1 0-1.04-.993-1.04-.993l1.158-19.353z"></path><path fill="#0e7bff" fill-rule="evenodd" d="m62.84 1933.97-.413 4.144.994.1.412-4.146-.994-.099z" color="#000" font-family="sans-serif" font-weight="400" overflow="visible" style="line-height:normal;text-indent:0;text-align:start;text-decoration-line:none;text-decoration-style:solid;text-decoration-color:#000;text-transform:none;block-progression:tb;white-space:normal;isolation:auto;mix-blend-mode:normal;solid-color:#000;solid-opacity:1" transform="translate(332.19 -.81)"></path><path fill="#0e7bff" d="M395.53 1939.427a.686.69 0 0 1-.686.69.686.69 0 0 1-.687-.69.686.69 0 0 1 .687-.691.686.69 0 0 1 .686.69z"></path><path fill="#dae7fc" d="M444.844 1924.258a2.74 2.74 0 0 1 2.447 2.732l2.031 17.965c0 2.073-1.137 4.145-3.79 4.145h-50.958c-1.632 0-2.835-.787-3.523-1.873.337.08.692.136 1.078.136h50.957c2.654 0 3.79-2.073 3.79-4.146l-.044-.385c.023-.203.043-.408.043-.613l-2.031-17.961z"></path><path fill="#dae7fc" d="M395.03 1924.258a2.74 2.74 0 0 0-2.448 2.732l-2.031 17.965c0 2.073 1.137 4.145 3.79 4.145H445.3c1.632 0 2.835-.787 3.523-1.873a4.569 4.569 0 0 1-1.078.136h-50.957c-2.654 0-3.79-2.073-3.79-4.146l.044-.385a5.532 5.532 0 0 1-.043-.613l2.031-17.961z"></path><path fill="#498ffd" fill-rule="evenodd" d="m400.756 1944.865-2.847 1.47h43.775l-.115-1.47h-40.813z"></path><path fill="#0e7bff" fill-rule="evenodd" d="M67.064 1924.721a.5.5 0 0 0-.473.475l-1.373 21.918a.5.5 0 0 0 .5.531h43.816a.5.5 0 0 0 .5-.531l-1.373-21.918a.5.5 0 1 0-.998.062l1.34 21.387H66.25l1.34-21.387a.5.5 0 0 0-.525-.537z" color="#000" font-family="sans-serif" font-weight="400" overflow="visible" style="line-height:normal;text-indent:0;text-align:start;text-decoration-line:none;text-decoration-style:solid;text-decoration-color:#000;text-transform:none;block-progression:tb;white-space:normal;isolation:auto;mix-blend-mode:normal;solid-color:#000;solid-opacity:1" transform="translate(332.19 -.81)"></path><path fill="#0e7bff" d="M63.136 1924.536c-1.79 0-3.244 1.466-3.244 3.264l.004-.055-2.035 17.99v.029c0 1.128.304 2.272 1.008 3.16.703.888 1.826 1.484 3.283 1.484H113.109c2.916 0 4.701-2.323 4.701-4.644v-.03l-2.035-17.991.004.057c0-1.798-1.454-3.264-3.244-3.264H63.136zm0 1h49.398c1.25 0 2.245.999 2.245 2.264v.029l.002.027 2.027 17.923c-.008 1.82-1.31 3.63-3.7 3.63H62.153c-1.197 0-1.97-.44-2.498-1.106-.526-.664-.787-1.588-.79-2.53l2.028-17.945v-.029c0-1.264.994-2.263 2.244-2.263z" color="#000" font-family="sans-serif" font-weight="400" overflow="visible" style="line-height:normal;text-indent:0;text-align:start;text-decoration-line:none;text-decoration-style:solid;text-decoration-color:#000;text-transform:none;block-progression:tb;white-space:normal;isolation:auto;mix-blend-mode:normal;solid-color:#000;solid-opacity:1" transform="translate(332.19 -.81)"></path><path fill="#b2cdf8" style="line-height:normal;text-indent:0;text-align:start;text-decoration-line:none;text-decoration-style:solid;text-decoration-color:#000;text-transform:none;block-progression:tb;white-space:normal;isolation:auto;mix-blend-mode:normal;solid-color:#000;solid-opacity:1" d="M112.208 1936.502c.52.01.999.434 1.077.969.078.535-.279.94-.8.93-.52-.01-.998-.435-1.077-.97-.078-.535.28-.94.8-.93z" color="#000" font-family="sans-serif" font-weight="400" overflow="visible" transform="translate(332.19 -.81)"></path><path fill="#0e7bff" d="M112.05 1935.593c-1.037-.022-1.756.812-1.606 1.84.15 1.029 1.12 1.899 2.155 1.92 1.037.023 1.756-.812 1.606-1.84-.15-1.029-1.12-1.898-2.155-1.92zm.145.997c.485.01.93.404 1.002.902.073.497-.26.875-.743.864-.485-.01-.93-.403-1.002-.901-.073-.498.26-.875.743-.865z" color="#000" font-family="sans-serif" font-weight="400" overflow="visible" style="line-height:normal;text-indent:0;text-align:start;text-decoration-line:none;text-decoration-style:solid;text-decoration-color:#000;text-transform:none;block-progression:tb;white-space:normal;isolation:auto;mix-blend-mode:normal;solid-color:#000;solid-opacity:1" transform="translate(332.19 -.81)"></path><path fill="#dae7fc" d="M423.005 1901.858a5.48 5.48 0 0 1 5.493 5.493 5.481 5.481 0 0 1-5.493 5.493 5.481 5.481 0 0 1-5.493-5.493 5.48 5.48 0 0 1 5.493-5.493z"></path><path fill="#6ca6fd" d="M423.005 1905.154c1.217 0 2.197.98 2.197 2.197s-.98 2.197-2.197 2.197a2.192 2.192 0 0 1-2.197-2.197c0-1.217.98-2.197 2.197-2.197z"></path><path fill="#6ca6fd" d="M422.73 1909.562a4.158 4.158 0 0 0-.858.137c-1.052.282-1.9.953-2.472 1.786.964.84 2.219 1.373 3.605 1.373 1.386 0 2.64-.532 3.604-1.373a4.388 4.388 0 0 0-3.879-1.923z"></path><path fill="none" stroke="#0e7bff" stroke-linecap="round" stroke-linejoin="round" stroke-miterlimit="2.824" stroke-width="1.364" d="M320.433 1217.04a5.5 5.5 0 0 1 3.889 3.889" transform="matrix(.73331 0 0 .73333 189.072 1010.963)"></path><path fill="none" stroke="#0e7bff" stroke-width="1.364" d="M319.01 1214.862c4.15 0 7.49 3.34 7.49 7.49s-3.34 7.49-7.49 7.49-7.491-3.34-7.491-7.49 3.34-7.49 7.49-7.49z" transform="matrix(.73331 0 0 .73333 189.072 1010.963)"></path><path fill="none" stroke="#0e7bff" stroke-width="1.364" d="M319.01 1219.356a2.99 2.99 0 0 1 2.996 2.996 2.99 2.99 0 0 1-2.997 2.997 2.99 2.99 0 0 1-2.996-2.996 2.99 2.99 0 0 1 2.996-2.997z" transform="matrix(.73331 0 0 .73333 189.072 1010.963)"></path><path fill="none" stroke="#0e7bff" stroke-width="1.364" d="M318.635 1225.368a5.67 5.67 0 0 0-1.17.187c-1.435.385-2.592 1.3-3.371 2.434 1.315 1.148 3.025 1.873 4.915 1.873 1.89 0 3.6-.726 4.916-1.873-1.174-1.723-3.173-2.748-5.29-2.621z" transform="matrix(.73331 0 0 .73333 189.072 1010.963)"></path><path fill="#b2cdf8" d="M408.499 1911.862a5 5 0 0 1-5 5 5 5 0 0 1-5-5 5 5 0 0 1 5-5 5 5 0 0 1 5 5z"></path><path fill="none" stroke="#0e7bff" stroke-linejoin="round" stroke-miterlimit="34.178" d="M408.499 1911.862a5 5 0 0 1-5 5 5 5 0 0 1-5-5 5 5 0 0 1 5-5 5 5 0 0 1 5 5z"></path><path fill="#498ffd" d="M401.951 1914.299c-.18-.021-.57-.11-.755-.175a4.827 4.827 0 0 1-.451-.194l-.246-.123.194.01c.349.011.786-.081 1.107-.233.202-.097.47-.27.47-.305 0-.017-.06-.037-.173-.059a1.26 1.26 0 0 1-.942-.78c0-.01.078-.01.174-.01.333 0 .417-.046.214-.118a1.232 1.232 0 0 1-.717-.626 1.536 1.536 0 0 1-.128-.489c0-.038 0-.038.078 0 .164.082.46.131.458.075 0-.014-.04-.055-.09-.092-.17-.128-.331-.385-.395-.63-.063-.245-.027-.64.079-.843l.03-.056.113.123c.313.337.641.584 1.049.79.405.203.84.329 1.271.367l.155.015-.013-.196c-.015-.246.022-.45.118-.65.35-.717 1.283-.913 1.908-.4.108.09.12.094.198.082a2.31 2.31 0 0 0 .518-.183c.073-.037.139-.067.145-.067.01 0-.021.062-.062.14a1.245 1.245 0 0 1-.336.4c-.069.05-.11.115-.073.115.094 0 .493-.105.59-.154l.06-.031-.078.097a3.082 3.082 0 0 1-.425.428l-.104.08v.202c-.001.648-.219 1.359-.59 1.933-.661 1.022-1.72 1.582-2.968 1.57-.172 0-.344-.01-.383-.011z"></path><g transform="translate(276.999 661)"><circle cx="160.5" cy="1250.862" r="5" fill="#498ffd"></circle><path fill="#f4f7f8" d="M161.226 1248.362h.484v.968h-.323c-.323 0-.484.161-.484.484v.322h.807v.81h-.807v2.416h-1.129v-2.416h-.484v-.81h.484v-.484c0-.946.394-1.29 1.452-1.29z" class="st1"></path><path fill="none" stroke="#0e7bff" stroke-linejoin="round" stroke-miterlimit="34.178" d="M165.5 1250.862a5 5 0 0 1-5 5 5 5 0 0 1-5-5 5 5 0 0 1 5-5 5 5 0 0 1 5 5z"></path></g><path fill="none" stroke="#0e7bff" d="M420.999 1914.364c-1.608 5.474-2 10.949-2 20.985m14.5-17.927c-6 5.377-7 8.961-7 17.922m-19.145-17.918c6.12 5.375 7.14 8.959 7.14 17.918m.005 1.018v1m0 1v1m4.5-3v1m0 1v1m7.5-3v1m0 1v1"></path><path fill="none" stroke="#0e7bff" stroke-linecap="square" d="M399.999 1919.862v2m1-1h-2m15.5-18v2m1-1h-2m29.5 16v2m1-1h-2"></path><path fill="#6ca6fd" d="M403.999 1901.362a1 1 0 0 1-1 1 1 1 0 0 1-1-1 1 1 0 0 1 1-1 1 1 0 0 1 1 1z"></path><circle cx="410.499" cy="1906.862" r=".5" fill="#0e7bff"></circle><path fill="none" stroke="#0e7bff" stroke-linecap="square" d="M409.499 1928.862v2m1-1h-2m24 9v2m1-1h-2"></path><path fill="#b2cdf8" d="M435.249 1899.612a1.25 1.25 0 0 1-1.25 1.25 1.25 1.25 0 0 1-1.25-1.25 1.25 1.25 0 0 1 1.25-1.25 1.25 1.25 0 0 1 1.25 1.25z"></path><path fill="#0e7bff" fill-rule="evenodd" style="line-height:normal;text-indent:0;text-align:start;text-decoration-line:none;text-decoration-style:solid;text-decoration-color:#000;text-transform:none;block-progression:tb;white-space:normal;isolation:auto;mix-blend-mode:normal;solid-color:#000;solid-opacity:1" d="M424.498 928v1h-1v1h1v1h1v-1h1v-1h-1v-1h-1z" color="#000" font-family="sans-serif" font-weight="400" overflow="visible" transform="translate(0 988.362)"></path><path fill="#498ffd" d="M413.717 1915.613c-.295 0-.59.112-.816.338a1.145 1.145 0 0 0 0 1.626l1.633 1.628 1.633-1.628a1.145 1.145 0 0 0 0-1.626 1.155 1.155 0 0 0-1.633 0 1.154 1.154 0 0 0-.817-.338z"></path><path fill="#b2cdf8" d="M435.65 1926.188c-.321 0-.58.24-.58.538v5.923c0 .299.259.539.58.539H445.491c.32 0 .578-.24.578-.539v-5.923c0-.299-.258-.538-.578-.538h-9.843z"></path><path fill="none" stroke="#0e7bff" stroke-linecap="round" stroke-linejoin="round" d="m444.494 1927.736-3.924 2.126-3.923-2.126"></path><path fill="none" stroke="#0e7bff" d="M430.568 1930.185h3m-3 2h3m-5-2h1m-1 2h1"></path><path fill="none" stroke="#0e7bff" stroke-linecap="square" stroke-linejoin="round" stroke-miterlimit="34.178" d="M403.999 1901.362a1 1 0 0 1-1 1 1 1 0 0 1-1-1 1 1 0 0 1 1-1 1 1 0 0 1 1 1z"></path><path fill="none" stroke="#0e7bff" stroke-linecap="round" stroke-linejoin="round" d="M413.717 1915.613c-.295 0-.59.112-.816.338a1.145 1.145 0 0 0 0 1.626l1.633 1.628 1.633-1.628a1.145 1.145 0 0 0 0-1.626 1.155 1.155 0 0 0-1.633 0 1.154 1.154 0 0 0-.817-.338z"></path><path fill="none" stroke="#0e7bff" stroke-linecap="square" stroke-linejoin="round" stroke-miterlimit="34.178" d="M435.249 1899.612a1.25 1.25 0 0 1-1.25 1.25 1.25 1.25 0 0 1-1.25-1.25 1.25 1.25 0 0 1 1.25-1.25 1.25 1.25 0 0 1 1.25 1.25z"></path><path fill="none" stroke="#0e7bff" stroke-linecap="round" stroke-linejoin="round" d="M435.65 1926.188c-.321 0-.58.24-.58.538v5.923c0 .299.259.539.58.539H445.491c.32 0 .578-.24.578-.539v-5.923c0-.299-.258-.538-.578-.538h-9.843z"></path></g></svg>