<svg xmlns="http://www.w3.org/2000/svg" data-name="Layer 1" viewBox="0 0 512 512" id="robo-advisor"><rect width="31.03" height="110.39" x="143.17" y="372.02" fill="#c5d3dd"></rect><rect width="31.03" height="110.39" x="230.66" y="372.02" fill="#c5d3dd"></rect><polygon fill="#b6c4cf" points="261.69 412.41 230.66 392.41 230.66 372.02 261.69 372.02 261.69 412.41"></polygon><polygon fill="#b6c4cf" points="174.21 412.41 143.17 392.41 143.17 372.02 174.21 372.02 174.21 412.41"></polygon><path fill="#e8edf2" d="M365.26,194.33a154.07,154.07,0,0,1-140.52,91H209.85a15,15,0,1,1,0-30h14.89a124.14,124.14,0,0,0,113.15-73.24,15,15,0,1,1,27.37,12.28Z"></path><path fill="#d9e7ec" d="M365.26,194.33a153.56,153.56,0,0,1-15.15,26.4,38.57,38.57,0,0,1-25.41-16.07,123.71,123.71,0,0,0,13.19-22.61,15,15,0,1,1,27.37,12.28Z"></path><circle cx="356.36" cy="182.71" r="26" fill="#9facba"></circle><path fill="#e8edf2" d="M195,291.71a15,15,0,0,1-15,15H165.12A124,124,0,0,0,52,380a15,15,0,1,1-27.37-12.28,154.08,154.08,0,0,1,140.51-91H180A15,15,0,0,1,195,291.71Z"></path><path fill="#d9e7ec" d="M65.8,356.47A123.7,123.7,0,0,0,52,380a15,15,0,1,1-27.37-12.28,152.92,152.92,0,0,1,15.82-27.33A39.46,39.46,0,0,1,65.8,356.47Z"></path><circle cx="33.5" cy="379.29" r="26" fill="#9facba"></circle><rect width="206.85" height="159.36" x="99.01" y="227.66" fill="#9facba" rx="25"></rect><rect width="84.15" height="31.66" x="160.36" y="196" fill="#c5d3dd"></rect><polygon fill="#b6c4cf" points="244.51 196 160.36 196 160.36 207.66 244.51 217.66 244.51 196"></polygon><path fill="#9facba" d="M246.17 467.21h0a30.22 30.22 0 0 1 30.22 30.22v7.08a0 0 0 0 1 0 0H216a0 0 0 0 1 0 0v-7.08A30.22 30.22 0 0 1 246.17 467.21zM158.69 467.21h0a30.22 30.22 0 0 1 30.22 30.22v7.08a0 0 0 0 1 0 0H128.47a0 0 0 0 1 0 0v-7.08A30.22 30.22 0 0 1 158.69 467.21z"></path><rect width="156.86" height="81.87" x="124" y="114.13" fill="#c5d3dd" rx="25"></rect><circle cx="164.94" cy="155.07" r="15.94" fill="#fff"></circle><circle cx="239.92" cy="155.07" r="15.94" fill="#fff"></circle><circle cx="202.43" cy="25" r="17.5" fill="#fe646f"></circle><path fill="#9facba" d="M168.69,82.47h67.49a8.33,8.33,0,0,1,8.33,8.33v23.33a0,0,0,0,1,0,0H160.36a0,0,0,0,1,0,0V90.8A8.33,8.33,0,0,1,168.69,82.47Z"></path><path fill="#fedf30" d="M422.8,7.5c-45.12,0-81.7,26.45-81.7,59.07,0,12.47,5.36,24,14.49,33.57l-19.87,23.43,51.62-3.77a107.93,107.93,0,0,0,35.46,5.84c45.12,0,81.7-26.45,81.7-59.07S467.92,7.5,422.8,7.5Z"></path><path fill="#fed402" d="M441.3,9c20.14,10.76,33.2,28,33.2,47.53,0,32.62-36.58,59.07-81.7,59.07a107.93,107.93,0,0,1-35.46-5.84l-10.6.77-11,13,51.62-3.77a107.93,107.93,0,0,0,35.46,5.84c45.12,0,81.7-26.45,81.7-59.07C504.5,38.55,477.51,15.1,441.3,9Z"></path><path d="M164.94,131.63a23.44,23.44,0,1,0,23.44,23.44A23.46,23.46,0,0,0,164.94,131.63Zm0,31.88a8.44,8.44,0,1,1,8.44-8.44A8.45,8.45,0,0,1,164.94,163.51Zm292.69-121H388.37a7.5,7.5,0,0,0,0,15h69.26a7.5,7.5,0,0,0,0-15Zm0,30H388.37a7.5,7.5,0,0,0,0,15h69.26a7.5,7.5,0,0,0,0-15ZM485,18.72C468.27,6.65,446.19,0,422.8,0s-45.47,6.65-62.17,18.72c-17.43,12.61-27,29.6-27,47.85,0,12,4.16,23.47,12.11,33.62L330,118.72a7.5,7.5,0,0,0,6.27,12.33l50.09-3.66a115.42,115.42,0,0,0,36.44,5.75c23.39,0,45.47-6.65,62.16-18.73,17.44-12.6,27-29.59,27-47.84S502.4,31.33,485,18.72ZM422.8,118.14a100.08,100.08,0,0,1-33-5.42,7.45,7.45,0,0,0-2.47-.42,5,5,0,0,0-.55,0L353,114.79l8.31-9.8a7.52,7.52,0,0,0-.3-10c-8.12-8.48-12.41-18.29-12.41-28.38C348.6,38.13,381.88,15,422.8,15S497,38.13,497,66.57,463.71,118.14,422.8,118.14Zm-66.44,31.07A33.47,33.47,0,0,0,324.18,192a117.24,117.24,0,0,1-28.58,31.72,32.36,32.36,0,0,0-14.74-3.55H252V203.5h3.85A32.53,32.53,0,0,0,288.36,171V139.13a32.54,32.54,0,0,0-32.5-32.5H252V90.8A15.85,15.85,0,0,0,236.17,75H210.43V48.68a25,25,0,1,0-15,.32V75H168.69A15.85,15.85,0,0,0,152.86,90.8v15.83H149a32.54,32.54,0,0,0-32.5,32.5V171A32.53,32.53,0,0,0,149,203.5h3.86v16.66H124a32.53,32.53,0,0,0-32.49,32.5V287a160.89,160.89,0,0,0-64.08,59.33A33.52,33.52,0,1,0,65.68,370a117.43,117.43,0,0,1,25.83-29.54V362A32.52,32.52,0,0,0,124,394.52h11.67v73.05A37.69,37.69,0,0,0,121,497.42v7.08a7.5,7.5,0,0,0,7.5,7.5h60.44a7.5,7.5,0,0,0,7.5-7.5v-7.08a37.69,37.69,0,0,0-14.7-29.85V394.52h41.45v73.05a37.67,37.67,0,0,0-14.71,29.85v7.08A7.5,7.5,0,0,0,216,512h60.44a7.5,7.5,0,0,0,7.5-7.5v-7.08a37.69,37.69,0,0,0-14.7-29.85V394.52h11.67A32.52,32.52,0,0,0,313.35,362V266.25a162.2,162.2,0,0,0,49.1-50.6,33.5,33.5,0,0,0-6.09-66.44ZM33.5,397.79A18.5,18.5,0,1,1,52,379.29,18.52,18.52,0,0,1,33.5,397.79Zm58-76a132.22,132.22,0,0,0-34.33,33.82,33.58,33.58,0,0,0-12.73-8,145.64,145.64,0,0,1,47.06-43.53ZM192.43,25a10,10,0,1,1,10,10A10,10,0,0,1,192.43,25ZM167.86,90.8a.83.83,0,0,1,.83-.83h67.48a.84.84,0,0,1,.84.83v15.83H167.86ZM149,188.5A17.51,17.51,0,0,1,131.5,171V139.13a17.52,17.52,0,0,1,17.5-17.5H255.86a17.52,17.52,0,0,1,17.5,17.5V171a17.51,17.51,0,0,1-17.5,17.49Zm88,15v16.66H167.86V203.5ZM136,497a22.72,22.72,0,0,1,45.43,0Zm14.7-36.43V394.52h16v66.05a37.83,37.83,0,0,0-16,0ZM223.46,497a22.72,22.72,0,0,1,45.43,0Zm14.7-36.43V394.52h16v66.05a37.78,37.78,0,0,0-16,0ZM298.35,362a17.51,17.51,0,0,1-17.49,17.49H124A17.51,17.51,0,0,1,106.51,362V252.66A17.52,17.52,0,0,1,124,235.16H280.86a17.51,17.51,0,0,1,17.49,17.5ZM313,248.12a32.32,32.32,0,0,0-5.84-14.47,133,133,0,0,0,25.49-27.27,33.5,33.5,0,0,0,12.71,8A147.54,147.54,0,0,1,313,248.12Zm43.33-46.91a18.5,18.5,0,1,1,18.5-18.5A18.52,18.52,0,0,1,356.36,201.21ZM202.43,349.3a7.5,7.5,0,1,0,7.5,7.5A7.5,7.5,0,0,0,202.43,349.3Zm60.93-194.23a23.44,23.44,0,1,0-23.44,23.44A23.46,23.46,0,0,0,263.36,155.07Zm-23.44,8.44a8.44,8.44,0,1,1,8.44-8.44A8.45,8.45,0,0,1,239.92,163.51Zm-37.49,86.88a30,30,0,0,0-30,30,7.5,7.5,0,0,0,15,0,15,15,0,1,1,15,15,7.5,7.5,0,0,0-7.5,7.5V327a7.5,7.5,0,0,0,15,0V309.43a30,30,0,0,0-7.5-59Z"></path></svg>