<svg xmlns="http://www.w3.org/2000/svg" width="32" height="32" viewBox="0 0 32 32" id="setting"><g transform="translate(0 -1020.362)"><path fill="#f05542" style="line-height:normal;text-indent:0;text-align:start;text-decoration-line:none;text-decoration-style:solid;text-decoration-color:#000;text-transform:none;block-progression:tb;isolation:auto;mix-blend-mode:normal" d="m 7.4550781,1034.3613 a 0.50005,0.50005 0 0 0 -0.5,0.5 l 0,1.4024 c -0.5337037,0.1524 -1.0464451,0.3622 -1.5332031,0.6289 l -0.9863281,-0.9864 a 0.50005,0.50005 0 0 0 -0.7070313,0 l -2.1835937,2.1856 a 0.50005,0.50005 0 0 0 0,0.707 l 0.9882812,0.9883 c -0.2678057,0.4858 -0.4810497,0.9963 -0.6347656,1.5293 l -1.3984375,0 a 0.50005,0.50005 0 0 0 -0.5,0.5 l 0,3.0918 a 0.50005,0.50005 0 0 0 0.5,0.5 l 1.4023438,0 c 0.1521787,0.533 0.3607252,1.045 0.6269531,1.5313 l -0.984375,0.9863 a 0.50005,0.50005 0 0 0 0,0.707 l 2.1835937,2.1856 a 0.50005,0.50005 0 0 0 0.7070313,0 l 0.9902343,-0.9883 c 0.4856295,0.2676 0.9965081,0.4791 1.5292969,0.6328 l 0,1.3984 a 0.50005,0.50005 0 0 0 0.5,0.5 l 3.0898439,0 a 0.50005,0.50005 0 0 0 0.5,-0.5 l 0,-1.4004 c 0.533701,-0.1523 1.046447,-0.3622 1.533203,-0.6289 l 0.986328,0.9864 a 0.50005,0.50005 0 0 0 0.707031,0 l 2.183594,-2.1856 a 0.50005,0.50005 0 0 0 0,-0.707 l -0.988281,-0.9883 c 0.267815,-0.4858 0.481041,-0.9963 0.634765,-1.5293 l 1.398438,0 a 0.50005,0.50005 0 0 0 0.5,-0.5 l 0,-3.0918 a 0.50005,0.50005 0 0 0 -0.5,-0.5 l -1.402344,0 c -0.152183,-0.533 -0.36072,-1.045 -0.626953,-1.5312 l 0.984375,-0.9864 a 0.50005,0.50005 0 0 0 0,-0.707 l -2.183594,-2.1856 a 0.50005,0.50005 0 0 0 -0.707031,0 l -0.990234,0.9883 c -0.48563,-0.2676 -0.996508,-0.4791 -1.529297,-0.6328 l 0,-1.4004 a 0.50005,0.50005 0 0 0 -0.5,-0.5 l -3.0898439,0 z m 0.5,1 2.0898439,0 0,1.2266 a 0.50005,0.50005 0 0 0 0.388672,0.4883 c 0.707542,0.1612 1.383426,0.4403 1.998047,0.8261 a 0.50005,0.50005 0 0 0 0.61914,-0.07 l 0.867188,-0.8652 1.476562,1.4785 -0.861328,0.8633 a 0.50005,0.50005 0 0 0 -0.07226,0.6172 c 0.384133,0.6158 0.663067,1.2918 0.822265,2 a 0.50005,0.50005 0 0 0 0.486328,0.3906 l 1.230469,0 0,2.0918 -1.226562,0 a 0.50005,0.50005 0 0 0 -0.488282,0.3887 c -0.161228,0.7075 -0.440368,1.3834 -0.826172,1.998 a 0.50005,0.50005 0 0 0 0.07031,0.6192 l 0.865234,0.8652 -1.476562,1.4785 -0.863281,-0.8633 a 0.50005,0.50005 0 0 0 -0.619141,-0.07 c -0.615847,0.3842 -1.291839,0.6611 -2,0.8203 a 0.50005,0.50005 0 0 0 -0.390625,0.4883 l 0,1.2285 -2.0898439,0 0,-1.2265 a 0.50005,0.50005 0 0 0 -0.3886719,-0.4864 c -0.7075417,-0.1612 -1.3834258,-0.4403 -1.9980468,-0.8261 a 0.50005,0.50005 0 0 0 -0.6191406,0.068 l -0.8671876,0.8672 -1.4765624,-1.4785 0.8613281,-0.8633 a 0.50005,0.50005 0 0 0 0.072266,-0.6172 c -0.3841274,-0.6158 -0.6630729,-1.2918 -0.8222656,-2 a 0.50005,0.50005 0 0 0 -0.4863281,-0.3906 l -1.2304688,0 0,-2.0918 1.2265625,0 a 0.50005,0.50005 0 0 0 0.4882813,-0.3887 c 0.1612169,-0.7075 0.440381,-1.3834 0.8261718,-1.998 a 0.50005,0.50005 0 0 0 -0.070312,-0.6192 l -0.8652343,-0.8652 1.4765624,-1.4785 0.8632813,0.8633 a 0.50005,0.50005 0 0 0 0.6191406,0.07 c 0.6158495,-0.3842 1.2918356,-0.6611 2,-0.8203 a 0.50005,0.50005 0 0 0 0.390625,-0.4883 l 0,-1.2305 z" color="#000" font-family="sans-serif" font-weight="400" overflow="visible"></path><path fill="#f05542" style="line-height:normal;text-indent:0;text-align:start;text-decoration-line:none;text-decoration-style:solid;text-decoration-color:#000;text-transform:none;block-progression:tb;isolation:auto;mix-blend-mode:normal" d="M9 1038.4648c-2.6983891 0-4.8965149 2.1981-4.8964844 4.8965.0000308 2.6984 2.1981383 4.8965 4.8964844 4.8965 2.698346 0 4.896454-2.1981 4.896484-4.8965.000031-2.6984-2.198095-4.8965-4.896484-4.8965zm0 1c2.157945 0 3.896509 1.7386 3.896484 3.8965-.000024 2.1579-1.738574 3.8965-3.896484 3.8965-2.15791 0-3.8964597-1.7386-3.8964844-3.8965-.0000244-2.1579 1.7385394-3.8965 3.8964844-3.8965zM14 1021.3613a.50005.50005 0 0 0-.5.5l0 .793c-.265786.084-.521422.1894-.769531.3164l-.558594-.5586a.50005.50005 0 0 0-.707031 0l-1.414063 1.4141a.50005.50005 0 0 0 0 .707l.558594.5586c-.127662.2476-.233641.5042-.318359.7695l-.791016 0a.50005.50005 0 0 0-.5.5l0 2a.50005.50005 0 0 0 .5.5l.791016 0c.08403.2663.189172.523.316406.7715l-.556641.5567a.50005.50005 0 0 0 0 .707l1.414063 1.414a.50005.50005 0 0 0 .707031 0l.558594-.5585c.248087.1279.503603.2355.769531.3203l0 .789a.50005.50005 0 0 0 .5.5l2 0a.50005.50005 0 0 0 .5-.5l0-.791c.266363-.084.522881-.189.771484-.3164l.556641.5566a.50005.50005 0 0 0 .707031 0l1.414063-1.414a.50005.50005 0 0 0 0-.707l-.556641-.5567c.127903-.2481.233591-.5055.31836-.7715l.789062 0a.50005.50005 0 0 0 .5-.5l0-2a.50005.50005 0 0 0-.5-.5l-.791016 0c-.08413-.2662-.189079-.523-.316406-.7715l.556641-.5566a.50005.50005 0 0 0 0-.707l-1.414063-1.4141a.50005.50005 0 0 0-.707031 0l-.558594.5586c-.247885-.1277-.50384-.2337-.769531-.3184l0-.791a.50005.50005 0 0 0-.5-.5l-2 0zm.5 1l1 0 0 .6172a.50005.50005 0 0 0 .388672.4883c.43848.1.857385.2726 1.238281.5117a.50005.50005 0 0 0 .619141-.07l.435547-.4355.707031.707-.433594.4336a.50005.50005 0 0 0-.07031.6191c.238051.3817.40915.8014.507812 1.2403a.50005.50005 0 0 0 .488281.3886l.619141 0 0 1-.617188 0a.50005.50005 0 0 0-.488281.3907c-.09992.4384-.272627.8554-.511719 1.2363a.50005.50005 0 0 0 .07031.6191l.435547.4356-.707031.707-.433594-.4336a.50005.50005 0 0 0-.617188-.07c-.381654.2381-.801373.4111-1.240234.5098A.50005.50005 0 0 0 15.5 1031.7422l0 .6191-1 0 0-.6172a.50005.50005 0 0 0-.388672-.4863c-.438477-.1-.857388-.2726-1.238281-.5117a.50005.50005 0 0 0-.619141.068l-.435547.4355-.707031-.707.433594-.4336a.50005.50005 0 0 0 .07031-.6172c-.238048-.3817-.409153-.8014-.507812-1.2402a.50005.50005 0 0 0-.488281-.3907l-.619141 0 0-1 .617188 0a.50005.50005 0 0 0 .488281-.3886c.09991-.4385.27263-.8555.511719-1.2364a.50005.50005 0 0 0-.07031-.6211l-.435547-.4355.707031-.707.433594.4335a.50005.50005 0 0 0 .617188.072c.381654-.238.801373-.4111 1.240234-.5097A.50005.50005 0 0 0 14.5 1022.9805l0-.6192z" color="#000" font-family="sans-serif" font-weight="400" overflow="visible"></path><path fill="#f05542" style="line-height:normal;text-indent:0;text-align:start;text-decoration-line:none;text-decoration-style:solid;text-decoration-color:#000;text-transform:none;block-progression:tb;isolation:auto;mix-blend-mode:normal" d="m 15,1024.0176 c -1.841362,0 -3.345685,1.5024 -3.345703,3.3437 1.8e-5,1.8414 1.504341,3.3457 3.345703,3.3457 1.841363,0 3.345685,-1.5043 3.345703,-3.3457 -1.8e-5,-1.8413 -1.50434,-3.3437 -3.345703,-3.3437 z m 0,1 c 1.300926,0 2.34569,1.0428 2.345703,2.3437 -1.3e-5,1.301 -1.044777,2.3457 -2.345703,2.3457 -1.300926,0 -2.34569,-1.0447 -2.345703,-2.3457 1.3e-5,-1.3009 1.044777,-2.3437 2.345703,-2.3437 z" color="#000" font-family="sans-serif" font-weight="400" overflow="visible"></path><path fill="#2b4255" style="line-height:normal;text-indent:0;text-align:start;text-decoration-line:none;text-decoration-style:solid;text-decoration-color:#000;text-transform:none;block-progression:tb;isolation:auto;mix-blend-mode:normal" d="m 23.818359,1031.3613 a 0.50005,0.50005 0 0 0 -0.5,0.5 l 0,0.9961 c -0.35517,0.1076 -0.697133,0.2468 -1.02539,0.4199 l -0.699219,-0.6992 a 0.50005,0.50005 0 0 0 -0.707031,0 l -1.671875,1.6699 a 0.50005,0.50005 0 0 0 0,0.7071 l 0.703125,0.7031 c -0.173697,0.3274 -0.315415,0.6671 -0.423828,1.0215 l -0.994141,0 a 0.50005,0.50005 0 0 0 -0.5,0.5 l 0,2.3652 a 0.50005,0.50005 0 0 0 0.5,0.5 l 0.994141,0 c 0.107407,0.3546 0.247183,0.6957 0.419921,1.0235 l -0.699218,0.7011 a 0.50005,0.50005 0 0 0 0,0.7071 l 1.671875,1.6699 a 0.50005,0.50005 0 0 0 0.707031,0 l 0.701172,-0.7012 c 0.327702,0.1739 0.668662,0.3154 1.023437,0.4238 l 0,0.9922 a 0.50005,0.50005 0 0 0 0.5,0.5 l 2.363282,0 a 0.50005,0.50005 0 0 0 0.5,-0.5 l 0,-0.9941 c 0.35517,-0.1076 0.697133,-0.2468 1.02539,-0.4199 l 0.699219,0.6992 a 0.50005,0.50005 0 0 0 0.707031,0 l 1.671875,-1.6699 a 0.50005,0.50005 0 0 0 0,-0.7071 l -0.703125,-0.7031 c 0.173558,-0.327 0.31543,-0.6675 0.423828,-1.0215 l 0.994141,0 a 0.50005,0.50005 0 0 0 0.5,-0.5 l 0,-2.3652 a 0.50005,0.50005 0 0 0 -0.5,-0.5 l -0.994141,0 c -0.107405,-0.3546 -0.247185,-0.6957 -0.419921,-1.0235 l 0.699218,-0.7011 a 0.50005,0.50005 0 0 0 0,-0.7071 l -1.671875,-1.6699 a 0.50005,0.50005 0 0 0 -0.707031,0 l -0.701172,0.7012 c -0.327702,-0.1739 -0.668662,-0.3153 -1.023437,-0.4238 l 0,-0.9942 a 0.50005,0.50005 0 0 0 -0.5,-0.5 l -2.363282,0 z m 0.5,1 1.363282,0 0,0.8203 a 0.50005,0.50005 0 0 0 0.388671,0.4883 c 0.528169,0.1204 1.033387,0.3292 1.492188,0.6172 a 0.50005,0.50005 0 0 0 0.619141,-0.07 l 0.578125,-0.5781 0.964843,0.9629 -0.576171,0.5781 a 0.50005,0.50005 0 0 0 -0.07227,0.6172 c 0.286745,0.4597 0.494446,0.9655 0.613281,1.4941 a 0.50005,0.50005 0 0 0 0.488281,0.3887 l 0.822266,0 0,1.3652 -0.820312,0 a 0.50005,0.50005 0 0 0 -0.488282,0.3887 c -0.120355,0.5282 -0.327238,1.0314 -0.615234,1.4902 a 0.50005,0.50005 0 0 0 0.06836,0.6192 l 0.580078,0.58 -0.964843,0.9629 -0.576172,-0.5761 a 0.50005,0.50005 0 0 0 -0.619141,-0.07 c -0.459722,0.2867 -0.963564,0.4944 -1.492187,0.6132 a 0.50005,0.50005 0 0 0 -0.390625,0.4864 l 0,0.8222 -1.363282,0 0,-0.8203 a 0.50005,0.50005 0 0 0 -0.388671,-0.4863 c -0.528169,-0.1204 -1.033387,-0.3292 -1.492188,-0.6172 a 0.50005,0.50005 0 0 0 -0.619141,0.07 l -0.578125,0.5781 -0.964843,-0.9629 0.576171,-0.5781 a 0.50005,0.50005 0 0 0 0.07227,-0.6172 c -0.286748,-0.4597 -0.494444,-0.9655 -0.613281,-1.4941 a 0.50005,0.50005 0 0 0 -0.488281,-0.3887 l -0.822266,0 0,-1.3652 0.820312,0 a 0.50005,0.50005 0 0 0 0.488282,-0.3887 c 0.120355,-0.5282 0.327238,-1.0314 0.615234,-1.4902 a 0.50005,0.50005 0 0 0 -0.06836,-0.6192 l -0.580078,-0.58 0.964843,-0.9629 0.576172,0.5761 a 0.50005,0.50005 0 0 0 0.619141,0.07 c 0.459722,-0.2868 0.963564,-0.4945 1.492187,-0.6133 a 0.50005,0.50005 0 0 0 0.390625,-0.4864 l 0,-0.8242 z" color="#000" font-family="sans-serif" font-weight="400" overflow="visible"></path><path fill="#2b4255" style="line-height:normal;text-indent:0;text-align:start;text-decoration-line:none;text-decoration-style:solid;text-decoration-color:#000;text-transform:none;block-progression:tb;isolation:auto;mix-blend-mode:normal" d="m 25,1034.5 c -2.127053,0 -3.861348,1.7343 -3.861328,3.8613 -2e-5,2.1271 1.734275,3.8633 3.861328,3.8633 2.127053,0 3.861348,-1.7362 3.861328,-3.8633 2e-5,-2.127 -1.734275,-3.8613 -3.861328,-3.8613 z m 0,1 c 1.58661,0 2.861343,1.2747 2.861328,2.8613 1.5e-5,1.5866 -1.274718,2.8633 -2.861328,2.8633 -1.58661,0 -2.861343,-1.2767 -2.861328,-2.8633 C 22.138657,1036.7747 23.41339,1035.5 25,1035.5 Z" color="#000" font-family="sans-serif" font-weight="400" overflow="visible"></path></g></svg>