<svg xmlns="http://www.w3.org/2000/svg" data-name="Layer 1" viewBox="0 0 32 32" id="videocall"><path fill="#dad9d8" d="M23.5,16.5h5a0,0,0,0,1,0,0v3a2,2,0,0,1-2,2h-1a2,2,0,0,1-2-2v-3A0,0,0,0,1,23.5,16.5Z" class="colord9d8da svgShape"></path><path fill="#ecd082" d="M24.5.5h-8a1,1,0,0,0-1,1v4a1,1,0,0,0,1,1h2.879L20,8.121,21.621,6.5H24.5a1,1,0,0,0,1-1v-4A1,1,0,0,0,24.5.5Z" class="color82c8ec svgShape"></path><path fill="#dad9d8" d="M16.37,9.01a1.009,1.009,0,0,0-.87-.51H3.5a1,1,0,0,0-1,1v10h9.18" class="colord9d8da svgShape"></path><polygon fill="#ecd082" points="14.64 10.5 4.5 10.5 4.5 17.5 7.5 17.5 11.5 17.5 14.5 17.5 14.64 10.5" class="color82c8ec svgShape"></polygon><line x1="18.5" x2="22.5" y1="3.5" y2="3.5" fill="none" stroke="#000000" stroke-linecap="round" stroke-linejoin="round" class="colorStroke000000 svgStroke"></line><path fill="#dad9d8" d="M9.5,32V24.5a2,2,0,0,1,2-2h10a2,2,0,0,1,2,2V32Z" class="colord9d8da svgShape"></path><path fill="#e8aa00" d="M11.5,22.5v-2a3,3,0,0,1,3-3h4a3,3,0,0,1,3,3v2" class="colored456a svgShape"></path><path fill="#ffe8aa" d="M20,12.5a3.2,3.2,0,0,1-.07.7l-.01.04a3.5,3.5,0,0,1-6.84,0l-.01-.04a3.2,3.2,0,0,1-.07-.7,3.5,3.5,0,0,1,7,0Z" class="colorffd9aa svgShape"></path><path fill="#5d5b56" d="M20,12.5a3.2,3.2,0,0,1-.07.7l-.01.04A7.566,7.566,0,0,1,16.5,14a7.566,7.566,0,0,1-3.42-.76l-.01-.04a3.2,3.2,0,0,1-.07-.7,3.5,3.5,0,0,1,7,0Z" class="color57565d svgShape"></path><path fill="#ffe8aa" d="M18,15v2.722a.91.91,0,0,1-1,.778H16a.91.91,0,0,1-1-.778V15Z" class="colorffd9aa svgShape"></path><path fill="#dad9d8" d="M11.68,19.5H2.5a1,1,0,0,0-1,1v1h10" class="colord9d8da svgShape"></path><circle cx="9.5" cy="13.5" r="1" fill="#dad9d8" class="colord9d8da svgShape"></circle><path fill="#dad9d8" d="M9.5,14.5h0a2,2,0,0,1,2,2v1a0,0,0,0,1,0,0h-4a0,0,0,0,1,0,0v-1A2,2,0,0,1,9.5,14.5Z" class="colord9d8da svgShape"></path><rect width="3" height="7.5" x="2.5" y="24.5" fill="#5d5b56" class="color57565d svgShape"></rect><rect width="3" height="7.5" x="26.5" y="24.5" fill="#5d5b56" class="color57565d svgShape"></rect><path fill="#5d5b56" d="M28.5,21.5h3v2a1,1,0,0,1-1,1" class="color57565d svgShape"></path><path fill="#5d5b56" d="M21.75 21.5H31.5v2a1 1 0 0 1-1 1h-7M9.5 24.5h-8a1 1 0 0 1-1-1v-2h11" class="color57565d svgShape"></path><path d="M18.5,4h4a.5.5,0,0,0,0-1h-4a.5.5,0,0,0,0,1Zm13,17H22v-.5A3.5,3.5,0,0,0,18.5,17V16a.468.468,0,0,0-.01-.051,3.993,3.993,0,0,0,1.9-2.536.47.47,0,0,0,.014-.046,3.968,3.968,0,0,0-3.785-4.856A1.492,1.492,0,0,0,15.5,8H3.5A1.5,1.5,0,0,0,2,9.5v9.592A1.5,1.5,0,0,0,1,20.5V21H.5a.5.5,0,0,0-.5.5v2A1.5,1.5,0,0,0,1.5,25H2v6.5a.5.5,0,0,0,1,0V25H5v6.5a.5.5,0,0,0,1,0V25H9v6.5a.5.5,0,0,0,1,0v-7A1.5,1.5,0,0,1,11.5,23h10A1.5,1.5,0,0,1,23,24.5v7a.5.5,0,0,0,1,0V25h2v6.5a.5.5,0,0,0,1,0V25h2v6.5a.5.5,0,0,0,1,0V25h.5A1.5,1.5,0,0,0,32,23.5v-2A.5.5,0,0,0,31.5,21Zm-15-5.5a3,3,0,0,1-2.514-1.374,8.635,8.635,0,0,0,5.029,0A3,3,0,0,1,16.5,15.5Zm1,.858V17.5a.5.5,0,0,1-.5.5H16a.5.5,0,0,1-.5-.5V16.358a3.593,3.593,0,0,0,2,0Zm-6.76-2.016a1.5,1.5,0,1,0-2.48,0A2.491,2.491,0,0,0,7,16.5V17H5V11h7.8a3.877,3.877,0,0,0-.2,2.367.47.47,0,0,0,.014.046,3.993,3.993,0,0,0,1.9,2.536A.468.468,0,0,0,14.5,16v1H12v-.5A2.491,2.491,0,0,0,10.74,14.342ZM9.5,15A1.5,1.5,0,0,1,11,16.5V17H8v-.5A1.5,1.5,0,0,1,9.5,15ZM9,13.5a.5.5,0,1,1,.5.5A.5.5,0,0,1,9,13.5Zm7.5-4a3,3,0,0,1,3,3,2.958,2.958,0,0,1-.04.393,7.91,7.91,0,0,1-5.921,0,2.738,2.738,0,0,1,.472-2.066l0-.006A3,3,0,0,1,16.5,9.5ZM11,22.051A2.5,2.5,0,0,0,9.055,24H1.5a.5.5,0,0,1-.5-.5V22H11ZM11,20.5V21H2v-.5a.5.5,0,0,1,.5-.5h8.551A3.455,3.455,0,0,0,11,20.5Zm.351-1.5H3V9.5A.5.5,0,0,1,3.5,9H14.6a4,4,0,0,0-1.2,1H4.5a.5.5,0,0,0-.5.5v7a.5.5,0,0,0,.5.5h7.558A3.508,3.508,0,0,0,11.351,19ZM21,22H12V20.5A2.5,2.5,0,0,1,14.5,18h.092A1.5,1.5,0,0,0,16,19h1a1.5,1.5,0,0,0,1.408-1H18.5A2.5,2.5,0,0,1,21,20.5Zm10,1.5a.5.5,0,0,1-.5.5H23.945A2.5,2.5,0,0,0,22,22.051V22h9ZM16.5,7h2.535l.5,1.3a.5.5,0,0,0,.362.311.55.55,0,0,0,.1.011.5.5,0,0,0,.354-.146L21.828,7H24.5A1.5,1.5,0,0,0,26,5.5v-4A1.5,1.5,0,0,0,24.5,0h-8A1.5,1.5,0,0,0,15,1.5v4A1.5,1.5,0,0,0,16.5,7ZM16,1.5a.5.5,0,0,1,.5-.5h8a.5.5,0,0,1,.5.5v4a.5.5,0,0,1-.5.5H21.621a.5.5,0,0,0-.354.146L20.191,7.223l-.346-.9A.5.5,0,0,0,19.379,6H16.5a.5.5,0,0,1-.5-.5Z" fill="#000000" class="color000000 svgShape"></path><path d="M29.5,17H29v-.5a.5.5,0,0,0-.5-.5h-5a.5.5,0,0,0-.5.5v3A2.5,2.5,0,0,0,25.5,22h1a2.5,2.5,0,0,0,2.449-2H29.5a1.5,1.5,0,0,0,0-3Zm-1.5.5v2A1.5,1.5,0,0,1,26.5,21h-1A1.5,1.5,0,0,1,24,19.5V17h4ZM29.5,19H29V18h.5a.5.5,0,0,1,0,1Zm-5.12-4.5a.5.5,0,0,0,1,0,.515.515,0,0,1,.07-.283,1.6,1.6,0,0,0,0-1.434.6.6,0,0,1,0-.567,1.471,1.471,0,0,0,.17-.716.5.5,0,0,0-1,0,.512.512,0,0,1-.07.282,1.6,1.6,0,0,0,0,1.434.606.606,0,0,1,0,.568A1.484,1.484,0,0,0,24.38,14.5Zm2,0a.5.5,0,0,0,1,0,.515.515,0,0,1,.07-.283,1.6,1.6,0,0,0,0-1.434.6.6,0,0,1,0-.567,1.471,1.471,0,0,0,.17-.716.5.5,0,0,0-1,0,.512.512,0,0,1-.07.282,1.6,1.6,0,0,0,0,1.434.606.606,0,0,1,0,.568A1.484,1.484,0,0,0,26.38,14.5Z" fill="#000000" class="color000000 svgShape"></path></svg>