<svg width="41" height="30" viewBox="0 0 41 30" fill="none" xmlns="http://www.w3.org/2000/svg">
<path d="M31.4086 18.1005C32.0173 18.1005 32.5325 18.6491 32.2674 19.1971C32.2452 19.2429 32.2222 19.2882 32.1983 19.333C31.9709 19.9502 31.616 20.4853 31.263 21.0244C30.9679 21.6075 30.4475 22.0023 30.0646 22.5013C29.6638 22.9863 29.1174 23.3089 28.6847 23.7117C28.26 24.1326 27.7036 24.343 27.261 24.6396C26.7983 24.9061 26.3955 25.2007 25.9648 25.341L24.89 25.7859C24.3464 26.013 24.05 26.603 24.1923 27.1747L24.616 28.8758C24.7797 29.5335 25.4437 29.9355 26.1024 29.7759C26.4833 29.6797 26.9479 29.5675 27.4763 29.4332C28.0167 29.333 28.593 29.0584 29.2351 28.8079C29.8692 28.5234 30.603 28.331 31.285 27.8741C31.9709 27.4372 32.7626 27.0725 33.4605 26.4873C34.1365 25.8841 34.9521 25.361 35.5543 24.5935C36.2123 23.8761 36.8624 23.1226 37.3669 22.2649C37.9511 21.4472 38.348 20.5494 38.7667 19.6616C39.1456 18.7739 39.4507 17.8661 39.6999 16.9843C40.1725 15.2168 40.3839 13.5374 40.4656 12.1005C40.5334 10.6616 40.4936 9.46526 40.4098 8.59953C40.3799 8.19071 40.3241 7.79391 40.2842 7.51937L40.2384 7.20985C40.2362 7.19522 40.222 7.18555 40.2076 7.18889C40.1938 7.19209 40.1801 7.18334 40.1771 7.1695C39.8196 5.51428 39.0054 3.99352 37.8276 2.78153C36.6438 1.56339 35.141 0.706959 33.4931 0.3113C31.8452 -0.0843582 30.1196 -0.00307274 28.5157 0.545752C26.9119 1.09458 25.4954 2.08851 24.4302 3.41259C23.3649 4.73666 22.6945 6.33676 22.4963 8.02779C22.2981 9.71882 22.5804 11.4317 23.3104 12.9682C24.0405 14.5048 25.1884 15.8022 26.6215 16.7105C28.0547 17.6187 29.7143 18.1006 31.4086 18.1005ZM9.47389 18.1005C10.0826 18.1005 10.5978 18.6491 10.3327 19.1971C10.3105 19.2429 10.2875 19.2882 10.2635 19.333C10.0362 19.9502 9.68127 20.4853 9.32833 21.0244C9.03321 21.6075 8.51275 22.0023 8.12989 22.5013C7.72909 22.9863 7.18271 23.3089 6.75 23.7117C6.32527 24.1326 5.76892 24.343 5.32624 24.6396C4.86361 24.9061 4.46082 25.2007 4.0301 25.341L2.9553 25.7859C2.41166 26.013 2.11526 26.603 2.25763 27.1747L2.68124 28.8758C2.84501 29.5335 3.50902 29.9355 4.16769 29.7759C4.54856 29.6797 5.01317 29.5675 5.5416 29.4332C6.08199 29.333 6.65827 29.0584 7.30036 28.8079C7.93248 28.5214 8.66829 28.331 9.35026 27.8721C10.0362 27.4352 10.8279 27.0705 11.5258 26.4853C12.2018 25.8821 13.0173 25.359 13.6196 24.5935C14.2776 23.8761 14.9277 23.1226 15.4322 22.2649C16.0164 21.4472 16.4132 20.5494 16.832 19.6616C17.2109 18.7739 17.516 17.8661 17.7652 16.9843C18.2378 15.2168 18.4492 13.5374 18.5309 12.1005C18.5987 10.6616 18.5589 9.46526 18.4751 8.59953C18.4452 8.19071 18.3894 7.79391 18.3495 7.51937L18.3036 7.20985C18.3015 7.19522 18.2873 7.18555 18.2729 7.18889C18.2591 7.19209 18.2454 7.18334 18.2424 7.1695C17.8849 5.51428 17.0707 3.99352 15.8929 2.78153C14.7091 1.56339 13.2063 0.706959 11.5584 0.3113C9.91052 -0.0843582 8.18484 -0.00307274 6.581 0.545752C4.97715 1.09458 3.56068 2.08851 2.49545 3.41259C1.43021 4.73666 0.759735 6.33676 0.561584 8.02779C0.36343 9.71882 0.645699 11.4317 1.37573 12.9682C2.10576 14.5048 3.25373 15.8022 4.68684 16.7105C6.11995 17.6187 7.77962 18.1006 9.47389 18.1005Z" fill="#00B01C"/>
</svg>
